<svg width="200" height="200" viewBox="0 0 200 200" fill="none" xmlns="http://www.w3.org/2000/svg">
<path d="M111.506 75.5858L75.5189 111.573C74.6756 112.409 74.0063 113.404 73.5496 114.501C73.0928 115.597 72.8577 116.773 72.8577 117.961C72.8577 119.148 73.0928 120.324 73.5496 121.421C74.0063 122.517 74.6756 123.512 75.5189 124.348C76.3553 125.192 77.3503 125.861 78.4467 126.318C79.543 126.774 80.7189 127.01 81.9066 127.01C83.0943 127.01 84.2702 126.774 85.3666 126.318C86.4629 125.861 87.458 125.192 88.2943 124.348L124.281 88.3613C125.976 86.6671 126.927 84.3694 126.927 81.9736C126.927 79.5777 125.976 77.28 124.281 75.5858C122.587 73.8917 120.29 72.94 117.894 72.94C115.498 72.94 113.2 73.8917 111.506 75.5858Z" fill="black"/>
<path d="M102.419 148.55L90.9031 159.976C84.4382 166.637 75.7475 170.686 66.4884 171.35C57.2294 172.013 48.05 169.246 40.7011 163.574C36.8169 160.374 33.6473 156.394 31.3969 151.892C29.1466 147.39 27.8656 142.466 27.6367 137.438C27.4078 132.411 28.236 127.391 30.0679 122.703C31.8998 118.015 34.6947 113.764 38.2719 110.223L51.0474 97.3581C51.8906 96.5217 52.5599 95.5266 53.0167 94.4303C53.4734 93.334 53.7086 92.158 53.7086 90.9704C53.7086 89.7827 53.4734 88.6067 53.0167 87.5104C52.5599 86.4141 51.8906 85.419 51.0474 84.5826C50.211 83.7394 49.2159 83.0701 48.1196 82.6133C47.0233 82.1566 45.8473 81.9214 44.6596 81.9214C43.472 81.9214 42.296 82.1566 41.1997 82.6133C40.1033 83.0701 39.1083 83.7394 38.2719 84.5826L26.846 96.0985C17.2209 105.419 11.3048 117.916 10.1963 131.268C9.0877 144.621 12.8619 157.922 20.8182 168.703C25.5404 174.829 31.5121 179.88 38.3366 183.521C45.1611 187.161 52.6822 189.308 60.4002 189.819C68.1183 190.33 75.8566 189.192 83.1012 186.482C90.3459 183.772 96.9309 179.551 102.419 174.101L115.194 161.325C116.889 159.631 117.84 157.333 117.84 154.937C117.84 152.542 116.889 150.244 115.194 148.55C113.5 146.856 111.203 145.904 108.807 145.904C106.411 145.904 104.113 146.856 102.419 148.55ZM168.815 20.9754C157.961 12.9365 144.551 9.12384 131.09 10.2497C117.63 11.3755 105.04 17.3628 95.6714 27.0932L85.9549 36.9897C84.8443 37.797 83.9156 38.8286 83.229 40.0176C82.5424 41.2066 82.1131 42.5265 81.9689 43.892C81.8247 45.2574 81.9689 46.6379 82.392 47.9441C82.8152 49.2502 83.5079 50.453 84.4254 51.4745C85.2618 52.3177 86.2568 52.9871 87.3532 53.4438C88.4495 53.9006 89.6254 54.1357 90.8131 54.1357C92.0008 54.1357 93.1767 53.9006 94.2731 53.4438C95.3694 52.9871 96.3645 52.3177 97.2008 51.4745L108.897 39.6887C115.326 32.998 124.006 28.9271 133.261 28.2624C142.516 27.5978 151.69 30.3865 159.009 36.09C162.922 39.2911 166.117 43.2807 168.385 47.799C170.653 52.3173 171.944 57.2627 172.173 62.3132C172.402 67.3636 171.565 72.4057 169.715 77.1108C167.865 81.8159 165.045 86.0785 161.438 89.6208L148.662 102.486C147.819 103.323 147.15 104.318 146.693 105.414C146.236 106.51 146.001 107.686 146.001 108.874C146.001 110.062 146.236 111.238 146.693 112.334C147.15 113.43 147.819 114.425 148.662 115.262C149.499 116.105 150.494 116.774 151.59 117.231C152.687 117.688 153.862 117.923 155.05 117.923C156.238 117.923 157.414 117.688 158.51 117.231C159.606 116.774 160.601 116.105 161.438 115.262L174.213 102.486C179.649 96.9991 183.856 90.4198 186.557 83.184C189.258 75.9482 190.391 68.2211 189.881 60.5145C189.37 52.8079 187.229 45.2976 183.597 38.4812C179.965 31.6648 174.927 25.6978 168.815 20.9754Z" fill="black"/>
</svg>
